<?xml version="1.0" encoding="iso-8859-1"?>
<!-- Generator: Adobe Illustrator 19.0.0, SVG Export Plug-In . SVG Version: 6.00 Build 0)  -->
<svg xmlns="http://www.w3.org/2000/svg" xmlns:xlink="http://www.w3.org/1999/xlink" version="1.1" id="Layer_1" x="0px" y="0px" viewBox="0 0 512 512" style="enable-background:new 0 0 512 512;" xml:space="preserve" width="30px" height="30px">
<g>
	<g>
		<path d="M256,0C115.39,0,0,115.39,0,256s115.39,256,256,256s256-115.39,256-256S396.61,0,256,0z M256,61    c40.737,0,79.805,12.48,112.954,36.108c0.691,0.494,1.307,1.047,1.886,1.625L256,213.574L141.031,98.604    C173.29,74.976,213.041,61,256,61z M97.108,368.954C73.48,335.805,61,296.737,61,256c0-42.959,13.976-82.71,37.604-114.97    L213.574,256L98.733,370.841C98.155,370.261,97.602,369.645,97.108,368.954z M256,451c-40.737,0-79.805-12.48-112.954-36.108    c-0.691-0.494-1.307-1.047-1.886-1.625L256,298.426l114.969,114.969C338.71,437.024,298.959,451,256,451z M413.396,370.97    L298.426,256l114.839-114.839c0.581,0.58,1.135,1.197,1.627,1.885C438.52,176.195,451,215.263,451,256    C451,298.959,437.024,338.71,413.396,370.97z" fill="#555555"/>
	</g>
</g>
</svg>
